<?xml version="1.0" encoding="utf-8"?>
<!-- Generator: Adobe Illustrator 22.0.1, SVG Export Plug-In . SVG Version: 6.00 Build 0)  -->
<svg version="1.1" id="Layer_1" xmlns="http://www.w3.org/2000/svg" xmlns:xlink="http://www.w3.org/1999/xlink" x="0px" y="0px"
	 viewBox="0 0 512 512" style="enable-background:new 0 0 512 512;" xml:space="preserve">
<style type="text/css">
	.st0{fill:url(#SVGID_1_);}
	.st1{fill:url(#SVGID_2_);}
	.st2{fill:#0953A7;}
	.st3{fill:url(#SVGID_3_);}
	.st4{fill:url(#SVGID_4_);}
	.st5{fill:url(#SVGID_5_);}
	.st6{fill:url(#SVGID_6_);}
	.st7{fill:url(#SVGID_7_);}
	.st8{fill:url(#SVGID_8_);}
	.st9{fill:url(#SVGID_9_);}
	.st10{fill:url(#SVGID_10_);}
	.st11{fill:url(#SVGID_11_);}
	.st12{fill:url(#SVGID_12_);}
	.st13{fill:url(#SVGID_13_);}
	.st14{fill:url(#SVGID_14_);}
	.st15{fill:url(#SVGID_15_);}
	.st16{fill:url(#SVGID_16_);}
	.st17{fill:url(#SVGID_17_);}
	.st18{fill:url(#SVGID_18_);}
</style>
<g>
	<g>
		<linearGradient id="SVGID_1_" gradientUnits="userSpaceOnUse" x1="180.1763" y1="282.4678" x2="180.1763" y2="170.8108">
			<stop  offset="0" style="stop-color:#FF5B00"/>
			<stop  offset="1" style="stop-color:#FF2525"/>
		</linearGradient>
		<path class="st0" d="M253.5,242.7L253.5,242.7c-0.8-39.8-33.3-71.9-73.4-71.9s-72.6,32-73.4,71.9l0,19.1
			c0,11.4,9.2,20.6,20.6,20.6h105.4c11.4,0,20.6-9.2,20.6-20.6V242.7z M131.7,263.3c-3.2,0-5.7-2.6-5.7-5.7l0-14.9
			c0.8-29.3,24.7-52.7,54.2-52.7s53.4,23.5,54.2,52.7l0,14.9c0,3.2-2.6,5.7-5.7,5.7H131.7z"/>
		<linearGradient id="SVGID_2_" gradientUnits="userSpaceOnUse" x1="331.8237" y1="282.4678" x2="331.8237" y2="170.8108">
			<stop  offset="0" style="stop-color:#FF5B00"/>
			<stop  offset="1" style="stop-color:#FF2525"/>
		</linearGradient>
		<path class="st1" d="M405.2,242.7L405.2,242.7c-0.8-39.8-33.3-71.9-73.4-71.9s-72.6,32-73.4,71.9l0,19.1
			c0,11.4,9.2,20.6,20.6,20.6h105.4c11.4,0,20.6-9.2,20.6-20.6V242.7z M283.3,263.3c-3.2,0-5.7-2.6-5.7-5.7l0-14.9
			c0.8-29.3,24.7-52.7,54.2-52.7c29.4,0,53.4,23.5,54.2,52.7l0,14.9c0,3.2-2.6,5.7-5.7,5.7H283.3z"/>
	</g>
	<path class="st2" d="M255.6,100c15.4,0,25.1-13,25.1-24.3c0-7.7-5.5-10.4-5.5-16.2c0-4.7,2.9-3.9,2.9-8.6c0-3.1-3.5-7.1-7.1-10.1
		c0.7,2,0.7,3.3,0.7,6.6c0,4.9-5,6.8-5,11.4c0,5.6,3.4,5.3,3.4,10.2c0,2.6-1.7,6.3-4.7,6.3c-2.9,0-5-3.6-5-6.9c0-5.6,4.9-8.9,4.9-14
		c0-7.9-8.3-15-8.3-23.4c0-2.1,0-4.6,2-7.1c-4.7,2.1-7.5,3.9-7.5,7.1c0,3.5,3.8,7.1,3.8,10.8c0,5.3-6.2,10-6.2,15.5
		c0,5.4,3.5,6.6,3.5,11.2c0,3.9-2.7,6.9-5.6,6.9c-2.9,0-5.4-3.1-5.4-6.5c0-5,6-7.6,6-11.7c0-4.4-4.1-6.4-4.1-9
		c0-1.8,1.7-3.7,3.3-5.8c-5.3,2.1-8.8,5.9-8.8,8.4c0,2.7,2.3,3.4,2.3,6.8c0,5.5-9.3,11.1-9.3,18.6C231.3,84.3,237.8,100,255.6,100z"
		/>
	<linearGradient id="SVGID_3_" gradientUnits="userSpaceOnUse" x1="256.0006" y1="250.0095" x2="256.0006" y2="113.6827">
		<stop  offset="0" style="stop-color:#087AEA"/>
		<stop  offset="1" style="stop-color:#0953A7"/>
	</linearGradient>
	<path class="st3" d="M345.6,201.4c-1-48.6-40.7-87.8-89.6-87.8s-88.6,39.1-89.6,87.8l0,23.4c0,13.9,11.3,25.2,25.2,25.2h42.8l0-7.3
		c-0.2-5.6-1.1-11-2.9-16h-34.7c-3.9,0-7-3.1-7-7v-18.2h0c1-35.7,30.2-64.4,66.2-64.4s65.2,28.7,66.2,64.4h0v18.2c0,3.9-3.1,7-7,7
		l-34.7,0c-1.7,5.1-2.7,10.4-2.9,16l0,7.3h42.8c13.9,0,25.2-11.3,25.2-25.2L345.6,201.4L345.6,201.4z"/>
	<linearGradient id="SVGID_4_" gradientUnits="userSpaceOnUse" x1="61.8086" y1="470.592" x2="61.8086" y2="461.3303">
		<stop  offset="0" style="stop-color:#FF5B00"/>
		<stop  offset="1" style="stop-color:#FF2525"/>
	</linearGradient>
	<path class="st4" d="M118.8,461.3L0,466l118.8,4.6c2.6,0.1,4.8-2,4.8-4.6C123.6,463.3,121.4,461.2,118.8,461.3z"/>
	<linearGradient id="SVGID_5_" gradientUnits="userSpaceOnUse" x1="450.1914" y1="470.592" x2="450.1914" y2="461.3303">
		<stop  offset="0" style="stop-color:#FF5B00"/>
		<stop  offset="1" style="stop-color:#FF2525"/>
	</linearGradient>
	<path class="st5" d="M393.2,461.3c-2.6-0.1-4.8,2-4.8,4.6c0,2.6,2.2,4.7,4.8,4.6L512,466L393.2,461.3z"/>
	<g>
		<linearGradient id="SVGID_6_" gradientUnits="userSpaceOnUse" x1="35.4607" y1="410.4764" x2="35.4607" y2="341.1832">
			<stop  offset="0" style="stop-color:#087AEA"/>
			<stop  offset="1" style="stop-color:#0953A7"/>
		</linearGradient>
		<path class="st6" d="M70.5,381.3H19.6c1.9,8.4,9,13.5,19.3,13.5c7.1,0,12.3-2.1,16.9-6.5l10.4,11.3c-6.3,7.1-15.6,10.9-27.8,10.9
			C15.1,410.5,0,395.8,0,375.8c0-20.1,15.4-34.6,35.9-34.6c19.8,0,35,13.3,35,34.9C70.9,377.6,70.7,379.7,70.5,381.3z M19.4,370
			h33.1c-1.4-8.5-7.8-14-16.5-14C27.1,355.9,20.8,361.3,19.4,370z"/>
		<linearGradient id="SVGID_7_" gradientUnits="userSpaceOnUse" x1="120.586" y1="410.4764" x2="120.586" y2="316.6679">
			<stop  offset="0" style="stop-color:#087AEA"/>
			<stop  offset="1" style="stop-color:#0953A7"/>
		</linearGradient>
		<path class="st7" d="M157.2,375.8c0,21.1-14.6,34.6-33.5,34.6c-9,0-16.3-2.9-21.1-8.8v7.8H83.9v-92.8h19.5v32.6
			c5-5.5,11.9-8.1,20.3-8.1C142.6,341.2,157.2,354.7,157.2,375.8z M137.5,375.8c0-11.6-7.4-18.6-17.1-18.6s-17.1,7-17.1,18.6
			c0,11.6,7.4,18.6,17.1,18.6S137.5,387.5,137.5,375.8z"/>
		<linearGradient id="SVGID_8_" gradientUnits="userSpaceOnUse" x1="196.7061" y1="410.4764" x2="196.7061" y2="341.1832">
			<stop  offset="0" style="stop-color:#087AEA"/>
			<stop  offset="1" style="stop-color:#0953A7"/>
		</linearGradient>
		<path class="st8" d="M228.7,371.1v38.4h-18.3v-8.4c-3.6,6.1-10.6,9.4-20.5,9.4c-15.8,0-25.1-8.8-25.1-20.4
			c0-11.9,8.4-20.1,28.9-20.1h15.5c0-8.4-5-13.3-15.5-13.3c-7.1,0-14.5,2.4-19.4,6.3l-7-13.6c7.4-5.3,18.3-8.1,29-8.1
			C216.8,341.2,228.7,350.7,228.7,371.1z M209.2,388.2v-6.9h-13.4c-9.1,0-12,3.4-12,7.9c0,4.9,4.1,8.1,11,8.1
			C201.3,397.3,206.9,394.3,209.2,388.2z"/>
		<linearGradient id="SVGID_9_" gradientUnits="userSpaceOnUse" x1="267.1975" y1="409.4763" x2="267.1975" y2="341.1832">
			<stop  offset="0" style="stop-color:#087AEA"/>
			<stop  offset="1" style="stop-color:#0953A7"/>
		</linearGradient>
		<path class="st9" d="M288.1,341.2v18c-1.6-0.1-2.9-0.3-4.4-0.3c-10.8,0-17.9,5.9-17.9,18.8v31.8h-19.5v-67.3h18.6v8.9
			C269.7,344.6,277.7,341.2,288.1,341.2z"/>
		<linearGradient id="SVGID_10_" gradientUnits="userSpaceOnUse" x1="309.4791" y1="409.4763" x2="309.4791" y2="311.0392">
			<stop  offset="0" style="stop-color:#087AEA"/>
			<stop  offset="1" style="stop-color:#0953A7"/>
		</linearGradient>
		<path class="st10" d="M297.3,321.9c0-6.1,4.9-10.9,12.1-10.9c7.3,0,12.1,4.5,12.1,10.5c0,6.5-4.9,11.3-12.1,11.3
			C302.2,332.8,297.3,328,297.3,321.9z M299.7,342.2h19.5v67.3h-19.5V342.2z"/>
		<linearGradient id="SVGID_11_" gradientUnits="userSpaceOnUse" x1="394.2244" y1="409.4763" x2="394.2244" y2="341.1832">
			<stop  offset="0" style="stop-color:#087AEA"/>
			<stop  offset="1" style="stop-color:#0953A7"/>
		</linearGradient>
		<path class="st11" d="M451.1,371v38.5h-19.5V374c0-10.9-4.9-15.9-12.8-15.9c-8.8,0-14.9,5.6-14.9,17.6v33.8h-19.5V374
			c0-10.9-4.6-15.9-12.8-15.9c-8.6,0-14.8,5.6-14.8,17.6v33.8h-19.5v-67.3H356v7.8c5-5.8,12.5-8.8,21.1-8.8c9.4,0,17.4,3.6,22.1,11
			c5.4-6.9,14.1-11,24.3-11C439.6,341.2,451.1,350.4,451.1,371z"/>
		<linearGradient id="SVGID_12_" gradientUnits="userSpaceOnUse" x1="486.2966" y1="410.4764" x2="486.2966" y2="327.2993">
			<stop  offset="0" style="stop-color:#087AEA"/>
			<stop  offset="1" style="stop-color:#0953A7"/>
		</linearGradient>
		<path class="st12" d="M512,406.2c-4,2.9-9.9,4.3-15.9,4.3c-15.9,0-25.1-8.1-25.1-24.1v-27.6h-10.4v-15H471v-16.4h19.5v16.4h16.8
			v15h-16.8v27.4c0,5.8,3.1,8.9,8.4,8.9c2.9,0,5.8-0.9,7.9-2.5L512,406.2z"/>
	</g>
	<g>
		<linearGradient id="SVGID_13_" gradientUnits="userSpaceOnUse" x1="160.2908" y1="487.8101" x2="160.2908" y2="444.1122">
			<stop  offset="0" style="stop-color:#FF5B00"/>
			<stop  offset="1" style="stop-color:#FF2525"/>
		</linearGradient>
		<path class="st13" d="M175,487.8h-8.8l2.3-18.9h-17.2l-2.3,18.9h-8.8l5.4-43.7h8.8l-2.3,18.7h17.2l2.3-18.7h8.8L175,487.8z"/>
		<linearGradient id="SVGID_14_" gradientUnits="userSpaceOnUse" x1="204.768" y1="488.2904" x2="204.768" y2="443.6319">
			<stop  offset="0" style="stop-color:#FF5B00"/>
			<stop  offset="1" style="stop-color:#FF2525"/>
		</linearGradient>
		<path class="st14" d="M225.7,463.1c0,2.4-0.3,4.7-0.8,6.9c-0.5,2.2-1.3,4.2-2.3,6.1c-1,1.9-2.2,3.6-3.6,5.1
			c-1.4,1.5-3,2.8-4.8,3.9c-1.8,1.1-3.7,1.9-5.7,2.5s-4.2,0.9-6.5,0.9c-2.8,0-5.4-0.5-7.6-1.5c-2.2-1-4.2-2.4-5.7-4.1
			c-1.6-1.7-2.8-3.8-3.6-6.2c-0.8-2.4-1.3-4.9-1.3-7.7c0-2.4,0.3-4.7,0.8-6.8c0.5-2.2,1.3-4.2,2.3-6.1c1-1.9,2.2-3.6,3.6-5.1
			c1.4-1.5,3-2.8,4.8-3.9c1.8-1.1,3.7-1.9,5.7-2.5c2.1-0.6,4.2-0.9,6.5-0.9c2.8,0,5.4,0.5,7.6,1.5c2.2,1,4.2,2.4,5.7,4.1
			c1.6,1.7,2.8,3.8,3.6,6.2C225.3,457.8,225.7,460.4,225.7,463.1z M203,481.2c1.7,0,3.3-0.3,4.7-0.9c1.5-0.6,2.7-1.4,3.9-2.5
			c1.1-1.1,2.1-2.4,2.9-3.9c0.8-1.5,1.4-3.3,1.8-5.2h-23.6c0,1.9,0.3,3.6,0.7,5.1c0.5,1.5,1.1,2.8,2,3.9c0.9,1.1,2,1.9,3.2,2.5
			C199.9,480.9,201.4,481.2,203,481.2z M206.5,450.7c-1.7,0-3.2,0.3-4.6,0.8c-1.4,0.5-2.7,1.3-3.8,2.4c-1.1,1-2.1,2.3-2.8,3.7
			c-0.8,1.5-1.4,3.1-1.8,4.9h23.4c-0.1-1.8-0.3-3.4-0.8-4.8c-0.5-1.5-1.2-2.7-2.1-3.7c-0.9-1-1.9-1.8-3.2-2.4
			C209.4,451,208,450.7,206.5,450.7z"/>
		<linearGradient id="SVGID_15_" gradientUnits="userSpaceOnUse" x1="243.4221" y1="487.8101" x2="243.4221" y2="444.1122">
			<stop  offset="0" style="stop-color:#FF5B00"/>
			<stop  offset="1" style="stop-color:#FF2525"/>
		</linearGradient>
		<path class="st15" d="M263.5,487.8h-6.7c-0.8,0-1.4-0.2-1.8-0.5c-0.4-0.4-0.7-0.8-0.9-1.4l-1.6-8.5h-15.7l-3.6,8.5
			c-0.3,0.5-0.7,1-1.2,1.4c-0.5,0.4-1.2,0.6-1.9,0.6h-6.9l21-43.7h8.9L263.5,487.8z M239.5,471.3h11.9l-2.6-13.8
			c-0.1-0.7-0.3-1.6-0.5-2.5c-0.2-1-0.4-2-0.5-3.2c-0.4,1.1-0.8,2.2-1.3,3.2c-0.4,1-0.8,1.8-1.1,2.6L239.5,471.3z"/>
		<linearGradient id="SVGID_16_" gradientUnits="userSpaceOnUse" x1="280.9611" y1="487.8101" x2="280.9611" y2="444.1122">
			<stop  offset="0" style="stop-color:#FF5B00"/>
			<stop  offset="1" style="stop-color:#FF2525"/>
		</linearGradient>
		<path class="st16" d="M297.4,444.1l-0.9,7h-11.6l-4.5,36.6h-8.7l4.5-36.6h-11.6l0.8-7H297.4z"/>
		<linearGradient id="SVGID_17_" gradientUnits="userSpaceOnUse" x1="316.6791" y1="488.261" x2="316.6791" y2="444.1416">
			<stop  offset="0" style="stop-color:#FF5B00"/>
			<stop  offset="1" style="stop-color:#FF2525"/>
		</linearGradient>
		<path class="st17" d="M304.7,481.2c0.4-0.1,0.9-0.2,1.2-0.5c0.4-0.2,0.8-0.6,1.2-1s0.8-1,1.2-1.7l1.8-3.2l-12.4-30.6h8
			c0.8,0,1.3,0.2,1.7,0.5c0.4,0.3,0.7,0.8,1,1.4l4.8,15.2c0.3,1,0.6,2,0.8,3c0.2,1,0.4,2,0.6,3c0.4-1,0.8-2,1.3-3c0.5-1,1-2,1.5-3
			l7.7-15.2c0.3-0.5,0.7-0.9,1.2-1.3c0.5-0.4,1.2-0.6,1.9-0.6h7.4l-20.8,37.5c-0.8,1.3-1.5,2.4-2.3,3.3c-0.8,0.9-1.6,1.5-2.4,2
			c-0.8,0.5-1.6,0.8-2.5,1s-1.7,0.3-2.5,0.3c-1.7,0-2.9-0.2-3.7-0.5c-0.8-0.3-1.1-0.9-1-1.7l0.6-4.7h2.3
			C303.8,481.3,304.3,481.3,304.7,481.2z"/>
		<linearGradient id="SVGID_18_" gradientUnits="userSpaceOnUse" x1="350.9193" y1="488.2904" x2="350.9193" y2="443.6319">
			<stop  offset="0" style="stop-color:#FF5B00"/>
			<stop  offset="1" style="stop-color:#FF2525"/>
		</linearGradient>
		<path class="st18" d="M351.2,481c1.2,0,2.2-0.1,3-0.3c0.9-0.2,1.6-0.4,2.2-0.7c0.6-0.3,1.2-0.6,1.6-0.9c0.4-0.3,0.8-0.6,1.2-0.9
			c0.3-0.3,0.7-0.5,0.9-0.7c0.3-0.2,0.6-0.3,0.9-0.3c0.3,0,0.5,0,0.7,0.1c0.2,0.1,0.3,0.2,0.4,0.3l3,3.7c-1.9,2.2-4.1,3.9-6.7,5.1
			c-2.6,1.2-5.5,1.7-8.9,1.7c-2.7,0-5.1-0.5-7.2-1.4c-2.1-1-3.9-2.3-5.3-4c-1.4-1.7-2.5-3.7-3.3-6c-0.8-2.3-1.1-4.8-1.1-7.6
			c0-2.5,0.3-4.9,0.8-7.1c0.5-2.2,1.3-4.3,2.3-6.2c1-1.9,2.2-3.6,3.6-5.1c1.4-1.5,3-2.8,4.7-3.9c1.7-1.1,3.6-1.9,5.6-2.4
			c2-0.6,4.1-0.9,6.2-0.9c1.6,0,3.1,0.1,4.4,0.5c1.3,0.3,2.5,0.7,3.6,1.2c1.1,0.5,2,1.2,2.9,1.9c0.9,0.8,1.6,1.6,2.3,2.5l-3,3.6
			c-0.2,0.3-0.5,0.5-0.8,0.7c-0.3,0.2-0.7,0.3-1.1,0.3c-0.5,0-0.9-0.2-1.3-0.5c-0.4-0.3-0.9-0.7-1.5-1.1c-0.6-0.4-1.3-0.8-2.3-1.1
			c-0.9-0.3-2.1-0.5-3.6-0.5c-2,0-3.8,0.4-5.5,1.2c-1.7,0.8-3.2,2-4.4,3.5c-1.3,1.5-2.2,3.4-3,5.5c-0.7,2.2-1.1,4.6-1.1,7.3
			c0,2,0.2,3.7,0.7,5.3c0.5,1.5,1.2,2.8,2,3.9s1.9,1.9,3,2.5C348.5,480.7,349.8,481,351.2,481z"/>
	</g>
</g>
</svg>
